<mxfile host="app.diagrams.net" modified="2022-10-15T16:45:41.731Z" agent="5.0 (X11; Linux x86_64) AppleWebKit/537.36 (KHTML, like Gecko) Chrome/106.0.0.0 Safari/537.36" etag="dSUoypgpvmigiPUEm2hR" version="20.4.1" type="github">
  <diagram id="TDNNuyLzbv3iyBlOrY1_" name="Intro&amp;Overview">
    <mxGraphModel dx="1822" dy="1632" grid="1" gridSize="10" guides="1" tooltips="1" connect="1" arrows="1" fold="1" page="0" pageScale="1" pageWidth="850" pageHeight="1100" background="#D9DEFF" math="0" shadow="0">
      <root>
        <mxCell id="0" />
        <mxCell id="1" parent="0" />
        <mxCell id="dNPtcuBFcka5QRp-zRak-1" value="&lt;ol&gt;&lt;li&gt;&lt;span style=&quot;font-weight: bold; font-family: &amp;quot;Droid Sans Mono&amp;quot;, &amp;quot;monospace&amp;quot;, monospace; font-size: 23px;&quot;&gt;What is TDD?&lt;/span&gt;&lt;/li&gt;&lt;li&gt;&lt;font face=&quot;Droid Sans Mono, monospace, monospace&quot;&gt;&lt;b&gt;Which library to use for TDD?&lt;/b&gt;&lt;/font&gt;&lt;/li&gt;&lt;li&gt;&lt;font face=&quot;Droid Sans Mono, monospace, monospace&quot;&gt;&lt;b&gt;What is Pytest?&lt;/b&gt;&lt;/font&gt;&lt;/li&gt;&lt;li&gt;&lt;font face=&quot;Droid Sans Mono, monospace, monospace&quot;&gt;&lt;b&gt;How to use Pytest in Django projects?&lt;/b&gt;&lt;/font&gt;&lt;/li&gt;&lt;li&gt;&lt;span style=&quot;font-weight: bold; font-family: &amp;quot;Droid Sans Mono&amp;quot;, &amp;quot;monospace&amp;quot;, monospace;&quot;&gt;One of Rumi&#39;s quotes + Digital Art&lt;/span&gt;&lt;/li&gt;&lt;/ol&gt;&lt;span style=&quot;background-color: rgb(39, 40, 34); color: rgb(166, 226, 46); font-family: &amp;quot;Droid Sans Mono&amp;quot;, &amp;quot;monospace&amp;quot;, monospace; font-size: 23px; font-weight: bold;&quot;&gt;&lt;br&gt;&lt;/span&gt;" style="rounded=1;whiteSpace=wrap;html=1;fontSize=23;align=left;fillColor=#f5f5f5;fontColor=#333333;strokeColor=#666666;" vertex="1" parent="1">
          <mxGeometry x="-24" y="-500" width="850" height="570" as="geometry" />
        </mxCell>
        <mxCell id="dNPtcuBFcka5QRp-zRak-2" value="Intro &amp;amp; Overall View" style="rounded=0;whiteSpace=wrap;html=1;fontSize=23;fillColor=#dae8fc;strokeColor=#6c8ebf;" vertex="1" parent="1">
          <mxGeometry x="300" y="-540" width="202" height="60" as="geometry" />
        </mxCell>
      </root>
    </mxGraphModel>
  </diagram>
</mxfile>
